<svg width="54" height="62" viewBox="0 0 54 62" fill="none" xmlns="http://www.w3.org/2000/svg">
<path d="M49.9297 9.77213H42.6262C44.6179 7.72588 44.6872 4.41425 42.5064 2.323C40.3718 0.275875 36.8904 0.282625 34.7465 2.33863L27.5967 9.19462L19.7009 1.68963C18.5212 0.568125 16.6017 0.56825 15.4222 1.68963L10.7084 6.17C9.39054 7.42263 9.76029 9.04063 10.194 9.77213H4.07016C1.86516 9.77213 0.0712891 11.566 0.0712891 13.771V46.3394C0.0712891 48.5444 1.86516 50.3382 4.07016 50.3382H20.1918V58.7142H15.8837C15.1933 58.7142 14.6337 59.274 14.6337 59.9642C14.6337 60.6545 15.1933 61.2142 15.8837 61.2142H38.1162C38.8064 61.2142 39.3662 60.6545 39.3662 59.9642C39.3662 59.274 38.8064 58.7142 38.1162 58.7142H33.808V50.3382H49.9297C52.1347 50.3382 53.9285 48.5442 53.9285 46.3394V13.771C53.9285 11.566 52.1345 9.77213 49.9297 9.77213ZM51.4285 46.3394C51.4285 47.1659 50.7562 47.8382 49.9297 47.8382H4.07016C3.24366 47.8382 2.57129 47.1659 2.57129 46.3394V44.9002H51.4284L51.4285 46.3394ZM31.308 58.7142H22.6918V50.3382H31.308V58.7142ZM2.57129 42.4002V13.771C2.57129 12.9445 3.24366 12.2721 4.07016 12.2721H12.6603L18.5494 17.8699L12.5774 23.5965C12.4263 23.7406 12.3168 23.9234 12.251 24.1203L9.97929 30.9142C9.72516 31.6737 9.91641 32.5033 10.4782 33.0789C11.3684 33.9913 12.4758 33.7182 12.7189 33.6436L19.8017 31.4661C19.9952 31.4083 20.1739 31.3066 20.3208 31.167L26.4029 25.3349L34.2988 32.84C35.3509 33.8399 37.2799 34.0732 38.5774 32.8399L43.2912 28.3595C44.3504 27.3526 44.6724 25.4262 43.2912 24.1127L35.45 16.6596L40.0255 12.2723H49.9294C50.7559 12.2723 51.4283 12.9446 51.4283 13.7711V42.4004H2.57129V42.4002ZM12.4308 8.60475C12.2328 8.371 12.2327 8.21588 12.4308 7.98213L17.1444 3.50175C17.3665 3.29063 17.7563 3.2905 17.9784 3.50175L22.2844 7.59463L20.3968 9.38888C19.8964 9.8645 19.8763 10.6556 20.3519 11.156C20.8259 11.6546 21.617 11.6781 22.119 11.2009L24.0988 9.31913L25.7902 10.9268L20.3559 16.1376L12.4308 8.60475ZM40.7762 4.1275C41.8225 5.13075 42.0094 6.9065 40.7597 8.10488L39.8033 9.022L35.596 4.98763L36.4767 4.14313C37.6665 3.00213 39.5953 2.99525 40.7762 4.1275ZM33.79 6.71938L35.0802 7.9565L16.4578 25.6581L15.2487 24.4986L33.79 6.71938ZM37.9973 10.7537L19.4558 28.5329L18.2642 27.3902L36.8865 9.68863L37.9973 10.7537ZM33.455 23.6106C33.9289 24.1092 34.7203 24.1327 35.2223 23.6554L37.2019 21.7736L41.5689 25.9245C41.767 26.1584 41.767 26.3135 41.569 26.5474L36.8553 31.0277C36.6332 31.2389 36.2434 31.2389 36.0213 31.0277L28.2095 23.6026L33.6438 18.3918L35.3874 20.0491L33.4998 21.8434C32.9994 22.319 32.9794 23.1101 33.455 23.6106ZM14.0023 26.767L17.0555 29.6949L12.5612 31.0766L14.0023 26.767Z" fill="url(#paint0_linear_117_1697)"/>
<path d="M49.9297 9.77213H42.6262C44.6179 7.72588 44.6872 4.41425 42.5064 2.323C40.3718 0.275875 36.8904 0.282625 34.7465 2.33863L27.5967 9.19462L19.7009 1.68963C18.5212 0.568125 16.6017 0.56825 15.4222 1.68963L10.7084 6.17C9.39054 7.42263 9.76029 9.04063 10.194 9.77213H4.07016C1.86516 9.77213 0.0712891 11.566 0.0712891 13.771V46.3394C0.0712891 48.5444 1.86516 50.3382 4.07016 50.3382H20.1918V58.7142H15.8837C15.1933 58.7142 14.6337 59.274 14.6337 59.9642C14.6337 60.6545 15.1933 61.2142 15.8837 61.2142H38.1162C38.8064 61.2142 39.3662 60.6545 39.3662 59.9642C39.3662 59.274 38.8064 58.7142 38.1162 58.7142H33.808V50.3382H49.9297C52.1347 50.3382 53.9285 48.5442 53.9285 46.3394V13.771C53.9285 11.566 52.1345 9.77213 49.9297 9.77213ZM51.4285 46.3394C51.4285 47.1659 50.7562 47.8382 49.9297 47.8382H4.07016C3.24366 47.8382 2.57129 47.1659 2.57129 46.3394V44.9002H51.4284L51.4285 46.3394ZM31.308 58.7142H22.6918V50.3382H31.308V58.7142ZM2.57129 42.4002V13.771C2.57129 12.9445 3.24366 12.2721 4.07016 12.2721H12.6603L18.5494 17.8699L12.5774 23.5965C12.4263 23.7406 12.3168 23.9234 12.251 24.1203L9.97929 30.9142C9.72516 31.6737 9.91641 32.5033 10.4782 33.0789C11.3684 33.9913 12.4758 33.7182 12.7189 33.6436L19.8017 31.4661C19.9952 31.4083 20.1739 31.3066 20.3208 31.167L26.4029 25.3349L34.2988 32.84C35.3509 33.8399 37.2799 34.0732 38.5774 32.8399L43.2912 28.3595C44.3504 27.3526 44.6724 25.4262 43.2912 24.1127L35.45 16.6596L40.0255 12.2723H49.9294C50.7559 12.2723 51.4283 12.9446 51.4283 13.7711V42.4004H2.57129V42.4002ZM12.4308 8.60475C12.2328 8.371 12.2327 8.21588 12.4308 7.98213L17.1444 3.50175C17.3665 3.29063 17.7563 3.2905 17.9784 3.50175L22.2844 7.59463L20.3968 9.38888C19.8964 9.8645 19.8763 10.6556 20.3519 11.156C20.8259 11.6546 21.617 11.6781 22.119 11.2009L24.0988 9.31913L25.7902 10.9268L20.3559 16.1376L12.4308 8.60475ZM40.7762 4.1275C41.8225 5.13075 42.0094 6.9065 40.7597 8.10488L39.8033 9.022L35.596 4.98763L36.4767 4.14313C37.6665 3.00213 39.5953 2.99525 40.7762 4.1275ZM33.79 6.71938L35.0802 7.9565L16.4578 25.6581L15.2487 24.4986L33.79 6.71938ZM37.9973 10.7537L19.4558 28.5329L18.2642 27.3902L36.8865 9.68863L37.9973 10.7537ZM33.455 23.6106C33.9289 24.1092 34.7203 24.1327 35.2223 23.6554L37.2019 21.7736L41.5689 25.9245C41.767 26.1584 41.767 26.3135 41.569 26.5474L36.8553 31.0277C36.6332 31.2389 36.2434 31.2389 36.0213 31.0277L28.2095 23.6026L33.6438 18.3918L35.3874 20.0491L33.4998 21.8434C32.9994 22.319 32.9794 23.1101 33.455 23.6106ZM14.0023 26.767L17.0555 29.6949L12.5612 31.0766L14.0023 26.767Z" fill="black" fill-opacity="0.2"/>
<defs>
<linearGradient id="paint0_linear_117_1697" x1="0.0712891" y1="31.0032" x2="53.9285" y2="31.0032" gradientUnits="userSpaceOnUse">
<stop stop-color="#4776E6"/>
<stop offset="1" stop-color="#8E54E9"/>
</linearGradient>
</defs>
</svg>
